custom-analysis
version=1
nRows=6
nColumns=98
inDegrees=no

This file contains tibia displacement and acting force.

Units are S.I. units (seconds, meters, Newtons, ...)
Angles are in degrees.

endheader
time	APT	SIT	knee_angle	aACL_R_force	pACL_R_force	aPCL_R_force	pPCL_R_force	aMCL_R_force	mMCL_R_force	pMCL_R_force	aLCL_R_force	mLCL_R_force	pLCL_R_force	aPCL_L_force	pPCL_L_force	aMCL_L_force	aLCL_L_force	aACL_R_length	pACL_R_length	aPCL_R_length	pPCL_R_length	aMCL_R_length	mMCL_R_length	pMCL_R_length	aLCL_R_length	mLCL_R_length	pLCL_R_length	aPCL_L_length	pPCL_L_length	aMCL_L_length	aLCL_L_length	aACL_R_strain	pACL_R_strain	aPCL_R_strain	pPCL_R_strain	aMCL_R_strain	mMCL_R_strain	pMCL_R_strain	aLCL_R_strain	mLCL_R_strain	pLCL_R_strain	aPCL_L_strain	pPCL_L_strain	aMCL_L_strain	aLCL_L_strain	femur_lat_meniscii_r.femur_lat_r.force.X	femur_lat_meniscii_r.femur_lat_r.force.Y	femur_lat_meniscii_r.femur_lat_r.force.Z	femur_lat_meniscii_r.femur_lat_r.torque.X	femur_lat_meniscii_r.femur_lat_r.torque.Y	femur_lat_meniscii_r.femur_lat_r.torque.Z	femur_lat_meniscii_r.meniscus_lat_r.force.X	femur_lat_meniscii_r.meniscus_lat_r.force.Y	femur_lat_meniscii_r.meniscus_lat_r.force.Z	femur_lat_meniscii_r.meniscus_lat_r.torque.X	femur_lat_meniscii_r.meniscus_lat_r.torque.Y	femur_lat_meniscii_r.meniscus_lat_r.torque.Z	femur_med_meniscii_r.femur_med_r.force.X	femur_med_meniscii_r.femur_med_r.force.Y	femur_med_meniscii_r.femur_med_r.force.Z	femur_med_meniscii_r.femur_med_r.torque.X	femur_med_meniscii_r.femur_med_r.torque.Y	femur_med_meniscii_r.femur_med_r.torque.Z	femur_med_meniscii_r.meniscus_med_r.force.X	femur_med_meniscii_r.meniscus_med_r.force.Y	femur_med_meniscii_r.meniscus_med_r.force.Z	femur_med_meniscii_r.meniscus_med_r.torque.X	femur_med_meniscii_r.meniscus_med_r.torque.Y	femur_med_meniscii_r.meniscus_med_r.torque.Z	femur_med_tibia_r.tibia_upper_r.force.X	femur_med_tibia_r.tibia_upper_r.force.Y	femur_med_tibia_r.tibia_upper_r.force.Z	femur_med_tibia_r.tibia_upper_r.torque.X	femur_med_tibia_r.tibia_upper_r.torque.Y	femur_med_tibia_r.tibia_upper_r.torque.Z	femur_med_tibia_r.femur_med_r.force.X	femur_med_tibia_r.femur_med_r.force.Y	femur_med_tibia_r.femur_med_r.force.Z	femur_med_tibia_r.femur_med_r.torque.X	femur_med_tibia_r.femur_med_r.torque.Y	femur_med_tibia_r.femur_med_r.torque.Z	femur_lat_tibia_r.tibia_upper_r.force.X	femur_lat_tibia_r.tibia_upper_r.force.Y	femur_lat_tibia_r.tibia_upper_r.force.Z	femur_lat_tibia_r.tibia_upper_r.torque.X	femur_lat_tibia_r.tibia_upper_r.torque.Y	femur_lat_tibia_r.tibia_upper_r.torque.Z	femur_lat_tibia_r.femur_lat_r.force.X	femur_lat_tibia_r.femur_lat_r.force.Y	femur_lat_tibia_r.femur_lat_r.force.Z	femur_lat_tibia_r.femur_lat_r.torque.X	femur_lat_tibia_r.femur_lat_r.torque.Y	femur_lat_tibia_r.femur_lat_r.torque.Z	femur_lat_meniscii_force_r	femur_med_meniscii_force_r	femur_lat_tibia_force_r	femur_med_tibia_force_r
      0.05770761	      0.00998663	      0.00531897	     20.19566840	     65.07149858	     32.34435465	      0.00000000	      0.00000000	      0.00000000	     -7.18968719	    -47.91513163	      0.00000000	      0.00000000	      0.00000000	      0.00000000	      0.00000000	      0.00000001	      0.00000000	      0.03351890	      0.02661513	      0.02849829	      0.02784100	      0.05721236	      0.05998068	      0.06019889	      0.05361478	      0.05097223	      0.04787706	      0.01525851	      0.01651186	      0.06550154	      0.04489616	      0.08106308	      0.06211125	     -0.08351768	     -0.06848268	     -0.04688958	      0.00313036	      0.02504577	     -0.04220326	     -0.09493073	     -0.08531539	      0.00000079	     -0.32847694	      0.00000060	     -0.00000086	   -252.12164678	     55.30549879	     35.36094374	     -1.41206096	    -20.70961950	     22.39595434	    252.12164678	    -55.30549879	    -35.36094374	      1.96273341	      7.99439003	      1.41728319	   -223.95122725	      5.90371459	     12.29136061	     -0.04448212	     -0.47410296	      1.36529267	    223.95122725	     -5.90371459	    -12.29136061	      0.19125485	     -3.48885284	      3.21240179	    940.25301903	     18.04026135	     51.00911871	     -0.12067932	    -17.63021947	     10.37854566	   -940.25301903	    -18.04026135	    -51.00911871	     -0.46677779	     40.34209909	     -7.58237748	    218.25889272	     11.88984839	    -57.00022642	      0.24491717	      7.72045060	      2.56686645	   -218.25889272	    -11.88984839	     57.00022642	      0.30413440	    -28.84735214	     -4.87142342	    260.52719496	    224.36595904	    225.89231629	    941.80843117
      0.05836707	      0.01013468	      0.00541202	     20.56783378	     65.49340084	     31.91784311	      0.00000000	      0.00000000	      0.00000000	     -6.65150754	    -47.88949817	      0.00000000	      0.00000000	      0.00000000	      0.00000000	      0.00000000	      0.00000001	      0.00000000	      0.03354367	      0.02661889	      0.02853224	      0.02785113	      0.05724752	      0.05997383	      0.06015078	      0.05361232	      0.05094738	      0.04782773	      0.01525851	      0.01651186	      0.06550154	      0.04489616	      0.08186184	      0.06226135	     -0.08242592	     -0.06814380	     -0.04630384	      0.00301582	      0.02422668	     -0.04224713	     -0.09537211	     -0.08625781	      0.00000079	     -0.32847694	      0.00000060	     -0.00000086	   -254.15064405	     52.40347314	     35.72449991	     -1.34456114	    -20.91433742	     21.15902313	    254.15064405	    -52.40347314	    -35.72449991	      1.89377794	      8.05642068	      1.60919756	   -225.66467779	      6.51316254	     12.10641266	     -0.04040314	     -0.37723871	      1.58198329	    225.66467779	     -6.51316254	    -12.10641266	      0.18922787	     -3.51731362	      3.28736492	    939.85138806	     13.13743254	     48.75685877	     -0.20126720	    -17.56080922	     10.45712983	   -939.85138806	    -13.13743254	    -48.75685877	     -0.35467936	     39.37667914	     -5.61878225	    204.19088199	     12.60220740	    -53.07250548	      0.20492344	      7.20516025	      2.51765470	   -204.19088199	    -12.60220740	     53.07250548	      0.31101057	    -26.88194846	     -5.20495849	    261.94448603	    226.08302306	    211.35142005	    941.20691405
      0.05902653	      0.01028166	      0.00550600	     20.94174213	     65.21271503	     30.80110006	      0.00000000	      0.00000000	      0.00000000	     -6.51647731	    -48.26281354	      0.00000000	      0.00000000	      0.00000000	      0.00000000	      0.00000000	      0.00000001	      0.00000000	      0.03356738	      0.02662162	      0.02856734	      0.02786212	      0.05728342	      0.05996745	      0.06010296	      0.05361028	      0.05092272	      0.04777851	      0.01525851	      0.01651186	      0.06550154	      0.04489616	      0.08262662	      0.06237049	     -0.08129725	     -0.06777615	     -0.04570572	      0.00290920	      0.02341237	     -0.04228373	     -0.09580999	     -0.08719813	      0.00000079	     -0.32847694	      0.00000060	     -0.00000086	   -255.58603025	     46.36429962	     36.18746227	     -1.19256658	    -21.13689270	     18.58822511	    255.58603025	    -46.36429962	    -36.18746227	      1.73141704	      8.09606339	      1.92582928	   -230.25584313	      6.83335196	     12.13492115	     -0.03834788	     -0.30367024	      1.67057989	    230.25584313	     -6.83335196	    -12.13492115	      0.19044338	     -3.59496895	      3.41075940	    942.46762196	     12.92571752	     46.95778895	     -0.20061399	    -17.56135849	     10.76008339	   -942.46762196	    -12.92571752	    -46.95778895	     -0.34357879	     38.66512277	     -5.64692143	    190.82993406	     14.83493944	    -49.34178921	      0.12770242	      6.71677933	      2.52915773	   -190.82993406	    -14.83493944	     49.34178921	      0.35085482	    -25.01546323	     -6.17995400	    262.26589477	    230.67662279	    197.66322704	    943.72523891
      0.05968600	      0.01042657	      0.00560114	     21.31716574	     65.35375911	     30.10832816	      0.00000000	      0.00000000	      0.00000000	     -6.14521188	    -48.36766779	      0.00000000	      0.00000000	      0.00000000	      0.00000000	      0.00000000	      0.00000001	      0.00000000	      0.03358920	      0.02662254	      0.02860374	      0.02787409	      0.05731972	      0.05996123	      0.06005510	      0.05360845	      0.05089805	      0.04772923	      0.01525851	      0.01651186	      0.06550154	      0.04489616	      0.08333024	      0.06240701	     -0.08012655	     -0.06737559	     -0.04510109	      0.00280521	      0.02259743	     -0.04231629	     -0.09624792	     -0.08813975	      0.00000079	     -0.32847694	      0.00000060	     -0.00000086	   -256.96306110	     42.23112384	     36.60535558	     -1.08943240	    -21.34186139	     16.82623780	    256.96306110	    -42.23112384	    -36.60535558	      1.62415344	      8.13511497	      2.16386045	   -227.96463465	      8.01121704	     11.78803386	     -0.02164793	     -0.19779812	      2.17045491	    227.96463465	     -8.01121704	    -11.78803386	      0.17569454	     -3.58355946	      3.37843116	    943.36046248	      9.16021768	     44.79696191	     -0.25806779	    -17.51790795	     10.90235680	   -943.36046248	     -9.16021768	    -44.79696191	     -0.25821675	     37.76513638	     -4.17035122	    178.08197447	     15.66078324	    -45.76546539	      0.08496761	      6.25124199	      2.48356611	   -178.08197447	    -15.66078324	     45.76546539	      0.36122439	    -23.22785734	     -6.55668851	    262.97040641	    228.40974584	    184.53435340	    944.46791346
      0.06034546	      0.01057002	      0.00569723	     21.69418232	     64.65763870	     28.59297897	      0.00000000	      0.00000000	      0.00000000	     -6.21292576	    -48.90634967	      0.00000000	      0.00000000	      0.00000000	      0.00000000	      0.00000000	      0.00000001	      0.00000000	      0.03360980	      0.02662231	      0.02864129	      0.02788694	      0.05735664	      0.05995541	      0.06000746	      0.05360690	      0.05087346	      0.04767994	      0.01525851	      0.01651186	      0.06550154	      0.04489616	      0.08399467	      0.06239774	     -0.07891897	     -0.06694584	     -0.04448603	      0.00270779	      0.02178615	     -0.04234395	     -0.09668462	     -0.08908135	      0.00000079	     -0.32847694	      0.00000060	     -0.00000086	   -259.05126703	     35.54069363	     37.27814851	     -0.92293736	    -21.66799839	     13.97793264	    259.05126703	    -35.54069363	    -37.27814851	      1.44853925	      8.19979053	      2.51503467	   -229.95109819	      6.36682313	     12.65004867	     -0.02487588	     -0.49528681	      1.45465975	    229.95109819	     -6.36682313	    -12.65004867	      0.18493590	     -3.61852625	      3.52539202	    946.83116555	     10.78646057	     43.14238396	     -0.22831585	    -17.53857043	     11.28780423	   -946.83116555	    -10.78646057	    -43.14238396	     -0.28244176	     37.13204589	     -4.97714296	    166.45099049	     17.47717388	    -42.55607328	      0.01933999	      5.82796236	      2.48203741	   -166.45099049	    -17.47717388	     42.55607328	      0.39411045	    -21.61851654	     -7.34985085	    264.12186621	    230.38677854	    172.69164200	    947.87492270
      0.06096949	      0.01070374	      0.00578925	     22.05223218	     65.09818276	     28.25252222	      0.00000000	      0.00000000	      0.00000000	     -5.42465448	    -48.52507059	      0.00000000	      0.00000000	      0.00000000	      0.00000000	      0.00000000	      0.00000001	      0.00000000	      0.03362744	      0.02662031	      0.02867801	      0.02789999	      0.05739190	      0.05995003	      0.05996234	      0.05360555	      0.05085010	      0.04763317	      0.01525851	      0.01651186	      0.06550154	      0.04489616	      0.08456362	      0.06231809	     -0.07773827	     -0.06650900	     -0.04389863	      0.00261778	      0.02101799	     -0.04236811	     -0.09709942	     -0.08997488	      0.00000079	     -0.32847694	      0.00000060	     -0.00000086	   -258.07589475	     32.41801576	     37.07250508	     -0.84124006	    -21.54622071	     12.64469004	    258.07589475	    -32.41801576	    -37.07250508	      1.35957148	      8.14420031	      2.68299697	   -232.68385893	      7.60375883	     11.72749409	      0.00647794	     -0.05979320	      1.94194608	    232.68385893	     -7.60375883	    -11.72749409	      0.14905391	     -3.69915668	      3.58113482	    944.95219251	      3.57564141	     42.77701382	     -0.36130611	    -17.51994715	     11.24378070	   -944.95219251	     -3.57564141	    -42.77701382	     -0.12913082	     36.93870964	     -2.03311160	    155.81264915	     17.27309703	    -39.53300017	      0.00266875	      5.43730744	      2.40089470	   -155.81264915	    -17.27309703	     39.53300017	      0.38509587	    -20.10873307	     -7.28295082	    262.73268893	    233.10325925	    161.67498142	    945.92669073
